<svg preserveAspectRatio="xMidYMid meet" viewBox="91.68 102.48 128.4 124.19999999999999" xmlns="http://www.w3.org/2000/svg" version="1.0" style="max-height: 500px" width="128.4" height="124.19999999999999">
<metadata>
Created by potrace 1.10, written by Peter Selinger 2001-2011
</metadata>
<g stroke="none" fill="#000000" transform="translate(0.000000,300.000000) scale(0.100000,-0.100000)">
<path d="M1412 1939 c-107 -27 -186 -74 -273 -159 -60 -59 -85 -93 -117 -160&#10;-112 -233 -66 -497 117 -681 74 -73 145 -117 241 -148 222 -73 482 2 633 182&#10;58 69 79 107 112 197 23 63 28 91 28 180 1 175 -52 308 -168 426 -118 119&#10;-243 174 -405 179 -68 2 -116 -2 -168 -16z m290 -38 c276 -75 451 -343 409&#10;-625 -33 -228 -215 -418 -441 -464 -66 -13 -212 -7 -270 12 -185 61 -313 189&#10;-376 376 -29 84 -26 264 6 345 106 276 397 430 672 356z"/>
<path d="M1475 1623 c-105 -55 -134 -168 -71 -275 30 -52 143 -188 156 -188&#10;10 0 111 120 153 183 27 39 28 48 25 124 -3 70 -6 85 -28 108 -58 62 -167 84&#10;-235 48z m149 -37 c55 -23 76 -59 76 -130 0 -53 -5 -68 -34 -112 -19 -28 -51&#10;-68 -70 -89 -42 -44 -43 -44 -118 54 -53 71 -73 125 -63 180 15 88 117 135&#10;209 97z"/>
<path d="M1494 1546 c-54 -54 -43 -129 23 -165 63 -33 143 19 143 93 0 51 -52&#10;106 -100 106 -23 0 -41 -9 -66 -34z m119 -37 c47 -64 -46 -136 -103 -79 -26&#10;26 -25 51 1 84 28 35 73 33 102 -5z"/>
<path d="M1373 1250 c-146 -88 59 -212 276 -166 80 17 112 33 137 71 13 20 14&#10;28 2 51 -16 33 -72 69 -95 60 -12 -5 -5 -12 28 -29 112 -57 17 -140 -160 -140&#10;-131 1 -215 38 -209 92 2 19 14 32 45 47 23 12 39 24 36 28 -11 10 -27 7 -60&#10;-14z"/>
</g>
</svg>